<svg xmlns="http://www.w3.org/2000/svg" xmlns:xlink="http://www.w3.org/1999/xlink" width="1090" height="754.72"><rect width="1090" height="754.72" rx="5" ry="5" class="a"/><svg y="0%" x="0%"><circle cx="20" cy="20" r="6" fill="#ff5f58"/><circle cx="40" cy="20" r="6" fill="#ffbd2e"/><circle cx="60" cy="20" r="6" fill="#18c132"/></svg><svg height="694.72" viewBox="0 0 105 69.472" width="1050" x="15" xmlns="http://www.w3.org/2000/svg" xmlns:xlink="http://www.w3.org/1999/xlink" y="50"><style>@keyframes i{0%{transform:translateX(-105px)}2.1%{transform:translateX(-210px)}3.5%{transform:translateX(-315px)}6.9%{transform:translateX(-420px)}7.3%{transform:translateX(-525px)}7.6%{transform:translateX(-630px)}8%{transform:translateX(-735px)}8.3%{transform:translateX(-840px)}8.7%{transform:translateX(-945px)}9%{transform:translateX(-1050px)}9.3%{transform:translateX(-1155px)}9.7%{transform:translateX(-1260px)}10%{transform:translateX(-1365px)}10.3%{transform:translateX(-1470px)}10.7%{transform:translateX(-1575px)}11%{transform:translateX(-1680px)}11.4%{transform:translateX(-1785px)}11.7%{transform:translateX(-1890px)}12.1%{transform:translateX(-1995px)}12.4%{transform:translateX(-2100px)}12.8%{transform:translateX(-2205px)}13.1%{transform:translateX(-2310px)}13.4%{transform:translateX(-2415px)}13.8%{transform:translateX(-2520px)}14.1%{transform:translateX(-2625px)}14.5%{transform:translateX(-2730px)}14.8%{transform:translateX(-2835px)}15.1%{transform:translateX(-2940px)}15.5%{transform:translateX(-3045px)}15.8%{transform:translateX(-3150px)}16.2%{transform:translateX(-3255px)}16.5%{transform:translateX(-3360px)}16.8%{transform:translateX(-3465px)}17.2%{transform:translateX(-3570px)}17.6%{transform:translateX(-3675px)}17.9%{transform:translateX(-3780px)}18.3%{transform:translateX(-3885px)}18.7%{transform:translateX(-3990px)}19%{transform:translateX(-4095px)}19.4%{transform:translateX(-4200px)}19.7%{transform:translateX(-4305px)}20.1%{transform:translateX(-4410px)}22.9%{transform:translateX(-4515px)}25.7%{transform:translateX(-4620px)}27%{transform:translateX(-4725px)}31.2%{transform:translateX(-4830px)}33.3%{transform:translateX(-4935px)}37.4%{transform:translateX(-5040px)}39.5%{transform:translateX(-5145px)}42.3%{transform:translateX(-5250px)}44.3%{transform:translateX(-5355px)}47.1%{transform:translateX(-5460px)}48.5%{transform:translateX(-5565px)}49.9%{transform:translateX(-5670px)}51.9%{transform:translateX(-5775px)}55.4%{transform:translateX(-5880px)}57.5%{transform:translateX(-5985px)}59.5%{transform:translateX(-6090px)}62.3%{transform:translateX(-6195px)}64.4%{transform:translateX(-6300px)}67.8%{transform:translateX(-6405px)}69.9%{transform:translateX(-6510px)}72%{transform:translateX(-6615px)}73.7%{transform:translateX(-6720px)}75.1%{transform:translateX(-6825px)}76.5%{transform:translateX(-6930px)}78.6%{transform:translateX(-7035px)}82.7%{transform:translateX(-7140px)}84.8%{transform:translateX(-7245px)}86.2%{transform:translateX(-7350px)}88.2%{transform:translateX(-7455px)}91%{transform:translateX(-7560px)}94.5%{transform:translateX(-7665px)}to{transform:translateX(-7770px)}}.a{fill:#282d35}.f{fill:#b9c0cb;white-space:pre}</style><g font-family="Monaco,Consolas,Menlo,'Bitstream Vera Sans Mono','Powerline Symbols',monospace" font-size="1.67"><defs><symbol id="1"><text y="1.67" class="f">[32m~[0m</text><text x="9.018" y="1.67" class="f">[36m❯[0m</text><text x="18.036" y="1.67" class="f">pycode</text></symbol><symbol id="2"><text y="1.67" class="f">[2m[PyCode</text><text x="17.034" y="1.67" class="f">v3.05.79</text><text x="26.052" y="1.67" class="f">·</text><text x="28.056" y="1.67" class="f">claude-sonnet-4-6][0m</text></symbol><symbol id="3"><text y="1.67" class="f">[1m[36m[~]</text><text x="11.022" y="1.67" class="f">»[0m</text></symbol><symbol id="4"><text y="1.67" class="f">[1m[36m[~]</text><text x="11.022" y="1.67" class="f">»[0m</text><text x="16.032" y="1.67" class="f">/telegram</text></symbol><symbol id="5"><text y="1.67" class="f">[1m[36m[~]</text><text x="11.022" y="1.67" class="f">»[0m</text><text x="16.032" y="1.67" class="f">/telegram</text><text x="26.052" y="1.67" class="f">7890:AAEx_REDACTED</text></symbol><symbol id="6"><text y="1.67" class="f">[1m[36m[~]</text><text x="11.022" y="1.67" class="f">»[0m</text><text x="16.032" y="1.67" class="f">/telegram</text><text x="26.052" y="1.67" class="f">7890:AAEx_REDACTED</text><text x="45.09" y="1.67" class="f">458291205</text></symbol><symbol id="7"><text y="1.67" class="f">[32m✓[0m</text><text x="10.02" y="1.67" class="f">Telegram</text><text x="19.038" y="1.67" class="f">bridge</text><text x="26.052" y="1.67" class="f">online</text><text x="33.066" y="1.67" class="f">—</text><text x="35.07" y="1.67" class="f">bot</text><text x="39.078" y="1.67" class="f">@[1mcheetah_personal_bot[0m,</text><text x="68.136" y="1.67" class="f">chat</text><text x="73.146" y="1.67" class="f">458291205</text></symbol><symbol id="8"><text y="1.67" class="f">[2m</text><text x="7.014" y="1.67" class="f">Listening</text><text x="17.034" y="1.67" class="f">for</text><text x="21.042" y="1.67" class="f">messages.</text><text x="31.062" y="1.67" class="f">Typing</text><text x="38.076" y="1.67" class="f">indicator</text><text x="48.096" y="1.67" class="f">+</text><text x="50.1" y="1.67" class="f">slash</text><text x="56.112" y="1.67" class="f">passthrough</text><text x="68.136" y="1.67" class="f">enabled.[0m</text></symbol><symbol id="9"><text y="1.67" class="f">[34m┌─</text><text x="7.014" y="1.67" class="f">Telegram</text><text x="16.032" y="1.67" class="f">────────────────────────────────────────────────────────┐[0m</text></symbol><symbol id="10"><text y="1.67" class="f">[34m│[0m</text><text x="10.02" y="1.67" class="f">[2m11:42[0m</text><text x="23.046" y="1.67" class="f">[1mYou[0m:</text><text x="34.068" y="1.67" class="f">What&apos;s</text><text x="41.082" y="1.67" class="f">the</text><text x="45.09" y="1.67" class="f">CPU</text><text x="49.098" y="1.67" class="f">load</text><text x="54.108" y="1.67" class="f">on</text><text x="57.114" y="1.67" class="f">the</text><text x="61.122" y="1.67" class="f">server</text><text x="68.136" y="1.67" class="f">right</text><text x="74.148" y="1.67" class="f">now?</text></symbol><symbol id="11"><text y="1.67" class="f">[34m│[0m</text><text x="17.034" y="1.67" class="f">[2m🐆</text><text x="23.046" y="1.67" class="f">typing…[0m</text></symbol><symbol id="12"><text y="1.67" class="f">[34m└───────────────────────────────────────────────────────────────────┘[0m</text></symbol><symbol id="13"><text y="1.67" class="f">[33m[Bash][0m</text><text x="14.028" y="1.67" class="f">uptime</text></symbol><symbol id="14"><text x="2.004" y="1.67" class="f">[2m11:42:18</text><text x="14.028" y="1.67" class="f">up</text><text x="17.034" y="1.67" class="f">14</text><text x="20.04" y="1.67" class="f">days,</text><text x="26.052" y="1.67" class="f">load</text><text x="31.062" y="1.67" class="f">average:</text><text x="40.08" y="1.67" class="f">0.41,</text><text x="46.092" y="1.67" class="f">0.55,</text><text x="52.104" y="1.67" class="f">0.62[0m</text></symbol><symbol id="15"><text y="1.67" class="f">[34m│[0m</text><text x="10.02" y="1.67" class="f">[2m11:42[0m</text><text x="23.046" y="1.67" class="f">🐆</text><text x="26.052" y="1.67" class="f">CPU</text><text x="30.06" y="1.67" class="f">is</text><text x="33.066" y="1.67" class="f">[32mquiet[0m:</text><text x="47.094" y="1.67" class="f">0.41</text><text x="52.104" y="1.67" class="f">/</text><text x="54.108" y="1.67" class="f">0.55</text><text x="59.118" y="1.67" class="f">/</text><text x="61.122" y="1.67" class="f">0.62</text><text x="66.132" y="1.67" class="f">(1m</text><text x="70.14" y="1.67" class="f">/</text><text x="72.144" y="1.67" class="f">5m</text><text x="75.15" y="1.67" class="f">/</text><text x="77.154" y="1.67" class="f">15m).</text></symbol><symbol id="16"><text y="1.67" class="f">[34m│[0m</text><text x="17.034" y="1.67" class="f">Server</text><text x="24.048" y="1.67" class="f">has</text><text x="28.056" y="1.67" class="f">been</text><text x="33.066" y="1.67" class="f">up</text><text x="36.072" y="1.67" class="f">14</text><text x="39.078" y="1.67" class="f">days.</text><text x="45.09" y="1.67" class="f">Want</text><text x="50.1" y="1.67" class="f">me</text><text x="53.106" y="1.67" class="f">to</text><text x="56.112" y="1.67" class="f">check</text><text x="62.124" y="1.67" class="f">memory</text><text x="69.138" y="1.67" class="f">or</text><text x="72.144" y="1.67" class="f">disk?</text></symbol><symbol id="17"><text y="1.67" class="f">[34m│[0m</text><text x="10.02" y="1.67" class="f">[2m11:43[0m</text><text x="23.046" y="1.67" class="f">[1mYou[0m:</text><text x="34.068" y="1.67" class="f">Re-run</text><text x="41.082" y="1.67" class="f">the</text><text x="45.09" y="1.67" class="f">nightly</text><text x="53.106" y="1.67" class="f">backup</text><text x="60.12" y="1.67" class="f">and</text><text x="64.128" y="1.67" class="f">tell</text><text x="69.138" y="1.67" class="f">me</text><text x="72.144" y="1.67" class="f">when</text><text x="77.154" y="1.67" class="f">it&apos;s</text><text x="82.164" y="1.67" class="f">done</text></symbol><symbol id="18"><text y="1.67" class="f">[33m[Bash][0m</text><text x="14.028" y="1.67" class="f">bash</text><text x="19.038" y="1.67" class="f">/opt/scripts/nightly_backup.sh</text><text x="52.104" y="1.67" class="f">[2m(long-running,</text><text x="70.14" y="1.67" class="f">queued</text><text x="77.154" y="1.67" class="f">as</text><text x="80.16" y="1.67" class="f">job</text><text x="84.168" y="1.67" class="f">#2)[0m</text></symbol><symbol id="19"><text y="1.67" class="f">[34m│[0m</text><text x="10.02" y="1.67" class="f">[2m11:43[0m</text><text x="23.046" y="1.67" class="f">🐆</text><text x="26.052" y="1.67" class="f">Queued</text><text x="33.066" y="1.67" class="f">as</text><text x="36.072" y="1.67" class="f">job</text><text x="40.08" y="1.67" class="f">#2.</text><text x="44.088" y="1.67" class="f">I&apos;ll</text><text x="49.098" y="1.67" class="f">ping</text><text x="54.108" y="1.67" class="f">you</text><text x="58.116" y="1.67" class="f">when</text><text x="63.126" y="1.67" class="f">it</text><text x="66.132" y="1.67" class="f">finishes.</text></symbol><symbol id="20"><text y="1.67" class="f">[34m│[0m</text><text x="10.02" y="1.67" class="f">[2m11:43[0m</text><text x="23.046" y="1.67" class="f">[1mYou[0m:</text><text x="34.068" y="1.67" class="f">!jobs</text></symbol><symbol id="21"><text y="1.67" class="f">[34m│[0m</text><text x="10.02" y="1.67" class="f">[2m11:43[0m</text><text x="23.046" y="1.67" class="f">🐆</text><text x="26.052" y="1.67" class="f">Job</text><text x="30.06" y="1.67" class="f">queue:</text></symbol><symbol id="22"><text y="1.67" class="f">[34m│[0m</text><text x="17.034" y="1.67" class="f">[32m#1[0m</text><text x="27.054" y="1.67" class="f">[2m(done</text><text x="39.078" y="1.67" class="f">11:42)[0m</text><text x="50.1" y="1.67" class="f">uptime</text><text x="57.114" y="1.67" class="f">check</text></symbol><symbol id="23"><text y="1.67" class="f">[34m│[0m</text><text x="17.034" y="1.67" class="f">[33m#2[0m</text><text x="27.054" y="1.67" class="f">[2m(running</text><text x="39.078" y="1.67" class="f">11:43)[0m</text><text x="50.1" y="1.67" class="f">nightly_backup.sh</text><text x="78.156" y="1.67" class="f">[████░░░░░░]</text><text x="91.182" y="1.67" class="f">41%</text></symbol><symbol id="24"><text y="1.67" class="f">[34m│[0m</text><text x="17.034" y="1.67" class="f">[2m</text><text x="41.082" y="1.67" class="f">`!cancel</text><text x="50.1" y="1.67" class="f">2`</text><text x="53.106" y="1.67" class="f">to</text><text x="56.112" y="1.67" class="f">stop</text><text x="61.122" y="1.67" class="f">·</text><text x="63.126" y="1.67" class="f">`!job</text><text x="69.138" y="1.67" class="f">2`</text><text x="72.144" y="1.67" class="f">for</text><text x="76.152" y="1.67" class="f">details[0m</text></symbol><symbol id="25"><text y="1.67" class="f">[34m│[0m</text><text x="10.02" y="1.67" class="f">[2m11:51[0m</text><text x="23.046" y="1.67" class="f">🐆</text><text x="26.052" y="1.67" class="f">Job</text><text x="30.06" y="1.67" class="f">#2</text><text x="33.066" y="1.67" class="f">done.</text><text x="39.078" y="1.67" class="f">[32mBackup</text><text x="50.1" y="1.67" class="f">OK[0m</text><text x="56.112" y="1.67" class="f">—</text><text x="58.116" y="1.67" class="f">4.2</text><text x="62.124" y="1.67" class="f">GB</text><text x="65.13" y="1.67" class="f">→</text><text x="67.134" y="1.67" class="f">s3://prod-backups/2026-05-10/</text></symbol><symbol id="26"><text y="1.67" class="f">[34m│[0m</text><text x="17.034" y="1.67" class="f">[2mTook</text><text x="25.05" y="1.67" class="f">7m</text><text x="28.056" y="1.67" class="f">51s.</text><text x="33.066" y="1.67" class="f">Logs</text><text x="38.076" y="1.67" class="f">at</text><text x="41.082" y="1.67" class="f">~/.pycode/jobs/2/stdout.txt[0m</text></symbol><symbol id="27"><text y="1.67" class="f">[2mAlso</text><text x="8.016" y="1.67" class="f">available:</text><text x="19.038" y="1.67" class="f">/wechat</text><text x="27.054" y="1.67" class="f">(微信),</text><text x="33.066" y="1.67" class="f">/slack</text><text x="40.08" y="1.67" class="f">—</text><text x="42.084" y="1.67" class="f">same</text><text x="47.094" y="1.67" class="f">job</text><text x="51.102" y="1.67" class="f">queue</text><text x="57.114" y="1.67" class="f">&amp;</text><text x="59.118" y="1.67" class="f">passthrough.[0m</text></symbol><symbol id="a"><path fill="transparent" d="M0 0h105v33H0z"/></symbol><symbol id="b"><path fill="#6f7683" d="M0 0h1.102v2.171H0z"/></symbol></defs><path class="a" d="M0 0h105v69.472H0z"/><g style="animation-duration:14.459s;animation-iteration-count:infinite;animation-name:i;animation-timing-function:steps(1,end)"><svg width="7875"><svg><use xlink:href="#a"/><use xlink:href="#b" x="-.004"/></svg><svg x="105"><use xlink:href="#a"/><use xlink:href="#b" x="-.004" y="2.146"/><use xlink:href="#1"/></svg><svg x="210"><use xlink:href="#a"/><use xlink:href="#b" x="-.004" y="6.488"/><use xlink:href="#1"/><use xlink:href="#2" y="2.171"/></svg><svg x="315"><use xlink:href="#a"/><use xlink:href="#b" x="15.996" y="6.488"/><use xlink:href="#1"/><use xlink:href="#2" y="2.171"/><use xlink:href="#3" y="6.513"/></svg><svg x="420"><use xlink:href="#a"/><use xlink:href="#b" x="15.996" y="6.488"/><use xlink:href="#1"/><use xlink:href="#2" y="2.171"/><use xlink:href="#3" y="6.513"/></svg><svg x="525"><use xlink:href="#a"/><use xlink:href="#b" x="16.996" y="6.488"/><use xlink:href="#1"/><use xlink:href="#2" y="2.171"/><text y="8.183" class="f">[1m[36m[~]</text><text x="11.022" y="8.183" class="f">»[0m</text><text x="16.032" y="8.183" class="f">/</text></svg><svg x="630"><use xlink:href="#a"/><use xlink:href="#b" x="17.996" y="6.488"/><use xlink:href="#1"/><use xlink:href="#2" y="2.171"/><text y="8.183" class="f">[1m[36m[~]</text><text x="11.022" y="8.183" class="f">»[0m</text><text x="16.032" y="8.183" class="f">/t</text></svg><svg x="735"><use xlink:href="#a"/><use xlink:href="#b" x="18.996" y="6.488"/><use xlink:href="#1"/><use xlink:href="#2" y="2.171"/><text y="8.183" class="f">[1m[36m[~]</text><text x="11.022" y="8.183" class="f">»[0m</text><text x="16.032" y="8.183" class="f">/te</text></svg><svg x="840"><use xlink:href="#a"/><use xlink:href="#b" x="19.996" y="6.488"/><use xlink:href="#1"/><use xlink:href="#2" y="2.171"/><text y="8.183" class="f">[1m[36m[~]</text><text x="11.022" y="8.183" class="f">»[0m</text><text x="16.032" y="8.183" class="f">/tel</text></svg><svg x="945"><use xlink:href="#a"/><use xlink:href="#b" x="20.996" y="6.488"/><use xlink:href="#1"/><use xlink:href="#2" y="2.171"/><text y="8.183" class="f">[1m[36m[~]</text><text x="11.022" y="8.183" class="f">»[0m</text><text x="16.032" y="8.183" class="f">/tele</text></svg><svg x="1050"><use xlink:href="#a"/><use xlink:href="#b" x="21.996" y="6.488"/><use xlink:href="#1"/><use xlink:href="#2" y="2.171"/><text y="8.183" class="f">[1m[36m[~]</text><text x="11.022" y="8.183" class="f">»[0m</text><text x="16.032" y="8.183" class="f">/teleg</text></svg><svg x="1155"><use xlink:href="#a"/><use xlink:href="#b" x="22.996" y="6.488"/><use xlink:href="#1"/><use xlink:href="#2" y="2.171"/><text y="8.183" class="f">[1m[36m[~]</text><text x="11.022" y="8.183" class="f">»[0m</text><text x="16.032" y="8.183" class="f">/telegr</text></svg><svg x="1260"><use xlink:href="#a"/><use xlink:href="#b" x="23.996" y="6.488"/><use xlink:href="#1"/><use xlink:href="#2" y="2.171"/><text y="8.183" class="f">[1m[36m[~]</text><text x="11.022" y="8.183" class="f">»[0m</text><text x="16.032" y="8.183" class="f">/telegra</text></svg><svg x="1365"><use xlink:href="#a"/><use xlink:href="#b" x="24.996" y="6.488"/><use xlink:href="#1"/><use xlink:href="#2" y="2.171"/><use xlink:href="#4" y="6.513"/></svg><svg x="1470"><use xlink:href="#a"/><use xlink:href="#b" x="25.996" y="6.488"/><use xlink:href="#1"/><use xlink:href="#2" y="2.171"/><use xlink:href="#4" y="6.513"/></svg><svg x="1575"><use xlink:href="#a"/><use xlink:href="#b" x="26.996" y="6.488"/><use xlink:href="#1"/><use xlink:href="#2" y="2.171"/><text y="8.183" class="f">[1m[36m[~]</text><text x="11.022" y="8.183" class="f">»[0m</text><text x="16.032" y="8.183" class="f">/telegram</text><text x="26.052" y="8.183" class="f">7</text></svg><svg x="1680"><use xlink:href="#a"/><use xlink:href="#b" x="27.996" y="6.488"/><use xlink:href="#1"/><use xlink:href="#2" y="2.171"/><text y="8.183" class="f">[1m[36m[~]</text><text x="11.022" y="8.183" class="f">»[0m</text><text x="16.032" y="8.183" class="f">/telegram</text><text x="26.052" y="8.183" class="f">78</text></svg><svg x="1785"><use xlink:href="#a"/><use xlink:href="#b" x="28.996" y="6.488"/><use xlink:href="#1"/><use xlink:href="#2" y="2.171"/><text y="8.183" class="f">[1m[36m[~]</text><text x="11.022" y="8.183" class="f">»[0m</text><text x="16.032" y="8.183" class="f">/telegram</text><text x="26.052" y="8.183" class="f">789</text></svg><svg x="1890"><use xlink:href="#a"/><use xlink:href="#b" x="29.996" y="6.488"/><use xlink:href="#1"/><use xlink:href="#2" y="2.171"/><text y="8.183" class="f">[1m[36m[~]</text><text x="11.022" y="8.183" class="f">»[0m</text><text x="16.032" y="8.183" class="f">/telegram</text><text x="26.052" y="8.183" class="f">7890</text></svg><svg x="1995"><use xlink:href="#a"/><use xlink:href="#b" x="30.996" y="6.488"/><use xlink:href="#1"/><use xlink:href="#2" y="2.171"/><text y="8.183" class="f">[1m[36m[~]</text><text x="11.022" y="8.183" class="f">»[0m</text><text x="16.032" y="8.183" class="f">/telegram</text><text x="26.052" y="8.183" class="f">7890:</text></svg><svg x="2100"><use xlink:href="#a"/><use xlink:href="#b" x="31.996" y="6.488"/><use xlink:href="#1"/><use xlink:href="#2" y="2.171"/><text y="8.183" class="f">[1m[36m[~]</text><text x="11.022" y="8.183" class="f">»[0m</text><text x="16.032" y="8.183" class="f">/telegram</text><text x="26.052" y="8.183" class="f">7890:A</text></svg><svg x="2205"><use xlink:href="#a"/><use xlink:href="#b" x="32.996" y="6.488"/><use xlink:href="#1"/><use xlink:href="#2" y="2.171"/><text y="8.183" class="f">[1m[36m[~]</text><text x="11.022" y="8.183" class="f">»[0m</text><text x="16.032" y="8.183" class="f">/telegram</text><text x="26.052" y="8.183" class="f">7890:AA</text></svg><svg x="2310"><use xlink:href="#a"/><use xlink:href="#b" x="33.996" y="6.488"/><use xlink:href="#1"/><use xlink:href="#2" y="2.171"/><text y="8.183" class="f">[1m[36m[~]</text><text x="11.022" y="8.183" class="f">»[0m</text><text x="16.032" y="8.183" class="f">/telegram</text><text x="26.052" y="8.183" class="f">7890:AAE</text></svg><svg x="2415"><use xlink:href="#a"/><use xlink:href="#b" x="34.996" y="6.488"/><use xlink:href="#1"/><use xlink:href="#2" y="2.171"/><text y="8.183" class="f">[1m[36m[~]</text><text x="11.022" y="8.183" class="f">»[0m</text><text x="16.032" y="8.183" class="f">/telegram</text><text x="26.052" y="8.183" class="f">7890:AAEx</text></svg><svg x="2520"><use xlink:href="#a"/><use xlink:href="#b" x="35.996" y="6.488"/><use xlink:href="#1"/><use xlink:href="#2" y="2.171"/><text y="8.183" class="f">[1m[36m[~]</text><text x="11.022" y="8.183" class="f">»[0m</text><text x="16.032" y="8.183" class="f">/telegram</text><text x="26.052" y="8.183" class="f">7890:AAEx_</text></svg><svg x="2625"><use xlink:href="#a"/><use xlink:href="#b" x="36.996" y="6.488"/><use xlink:href="#1"/><use xlink:href="#2" y="2.171"/><text y="8.183" class="f">[1m[36m[~]</text><text x="11.022" y="8.183" class="f">»[0m</text><text x="16.032" y="8.183" class="f">/telegram</text><text x="26.052" y="8.183" class="f">7890:AAEx_R</text></svg><svg x="2730"><use xlink:href="#a"/><use xlink:href="#b" x="37.996" y="6.488"/><use xlink:href="#1"/><use xlink:href="#2" y="2.171"/><text y="8.183" class="f">[1m[36m[~]</text><text x="11.022" y="8.183" class="f">»[0m</text><text x="16.032" y="8.183" class="f">/telegram</text><text x="26.052" y="8.183" class="f">7890:AAEx_RE</text></svg><svg x="2835"><use xlink:href="#a"/><use xlink:href="#b" x="38.996" y="6.488"/><use xlink:href="#1"/><use xlink:href="#2" y="2.171"/><text y="8.183" class="f">[1m[36m[~]</text><text x="11.022" y="8.183" class="f">»[0m</text><text x="16.032" y="8.183" class="f">/telegram</text><text x="26.052" y="8.183" class="f">7890:AAEx_RED</text></svg><svg x="2940"><use xlink:href="#a"/><use xlink:href="#b" x="39.996" y="6.488"/><use xlink:href="#1"/><use xlink:href="#2" y="2.171"/><text y="8.183" class="f">[1m[36m[~]</text><text x="11.022" y="8.183" class="f">»[0m</text><text x="16.032" y="8.183" class="f">/telegram</text><text x="26.052" y="8.183" class="f">7890:AAEx_REDA</text></svg><svg x="3045"><use xlink:href="#a"/><use xlink:href="#b" x="40.996" y="6.488"/><use xlink:href="#1"/><use xlink:href="#2" y="2.171"/><text y="8.183" class="f">[1m[36m[~]</text><text x="11.022" y="8.183" class="f">»[0m</text><text x="16.032" y="8.183" class="f">/telegram</text><text x="26.052" y="8.183" class="f">7890:AAEx_REDAC</text></svg><svg x="3150"><use xlink:href="#a"/><use xlink:href="#b" x="41.996" y="6.488"/><use xlink:href="#1"/><use xlink:href="#2" y="2.171"/><text y="8.183" class="f">[1m[36m[~]</text><text x="11.022" y="8.183" class="f">»[0m</text><text x="16.032" y="8.183" class="f">/telegram</text><text x="26.052" y="8.183" class="f">7890:AAEx_REDACT</text></svg><svg x="3255"><use xlink:href="#a"/><use xlink:href="#b" x="42.996" y="6.488"/><use xlink:href="#1"/><use xlink:href="#2" y="2.171"/><text y="8.183" class="f">[1m[36m[~]</text><text x="11.022" y="8.183" class="f">»[0m</text><text x="16.032" y="8.183" class="f">/telegram</text><text x="26.052" y="8.183" class="f">7890:AAEx_REDACTE</text></svg><svg x="3360"><use xlink:href="#a"/><use xlink:href="#b" x="43.996" y="6.488"/><use xlink:href="#1"/><use xlink:href="#2" y="2.171"/><use xlink:href="#5" y="6.513"/></svg><svg x="3465"><use xlink:href="#a"/><use xlink:href="#b" x="44.996" y="6.488"/><use xlink:href="#1"/><use xlink:href="#2" y="2.171"/><use xlink:href="#5" y="6.513"/></svg><svg x="3570"><use xlink:href="#a"/><use xlink:href="#b" x="45.996" y="6.488"/><use xlink:href="#1"/><use xlink:href="#2" y="2.171"/><text y="8.183" class="f">[1m[36m[~]</text><text x="11.022" y="8.183" class="f">»[0m</text><text x="16.032" y="8.183" class="f">/telegram</text><text x="26.052" y="8.183" class="f">7890:AAEx_REDACTED</text><text x="45.09" y="8.183" class="f">4</text></svg><svg x="3675"><use xlink:href="#a"/><use xlink:href="#b" x="46.996" y="6.488"/><use xlink:href="#1"/><use xlink:href="#2" y="2.171"/><text y="8.183" class="f">[1m[36m[~]</text><text x="11.022" y="8.183" class="f">»[0m</text><text x="16.032" y="8.183" class="f">/telegram</text><text x="26.052" y="8.183" class="f">7890:AAEx_REDACTED</text><text x="45.09" y="8.183" class="f">45</text></svg><svg x="3780"><use xlink:href="#a"/><use xlink:href="#b" x="47.996" y="6.488"/><use xlink:href="#1"/><use xlink:href="#2" y="2.171"/><text y="8.183" class="f">[1m[36m[~]</text><text x="11.022" y="8.183" class="f">»[0m</text><text x="16.032" y="8.183" class="f">/telegram</text><text x="26.052" y="8.183" class="f">7890:AAEx_REDACTED</text><text x="45.09" y="8.183" class="f">458</text></svg><svg x="3885"><use xlink:href="#a"/><use xlink:href="#b" x="48.996" y="6.488"/><use xlink:href="#1"/><use xlink:href="#2" y="2.171"/><text y="8.183" class="f">[1m[36m[~]</text><text x="11.022" y="8.183" class="f">»[0m</text><text x="16.032" y="8.183" class="f">/telegram</text><text x="26.052" y="8.183" class="f">7890:AAEx_REDACTED</text><text x="45.09" y="8.183" class="f">4582</text></svg><svg x="3990"><use xlink:href="#a"/><use xlink:href="#b" x="49.996" y="6.488"/><use xlink:href="#1"/><use xlink:href="#2" y="2.171"/><text y="8.183" class="f">[1m[36m[~]</text><text x="11.022" y="8.183" class="f">»[0m</text><text x="16.032" y="8.183" class="f">/telegram</text><text x="26.052" y="8.183" class="f">7890:AAEx_REDACTED</text><text x="45.09" y="8.183" class="f">45829</text></svg><svg x="4095"><use xlink:href="#a"/><use xlink:href="#b" x="50.996" y="6.488"/><use xlink:href="#1"/><use xlink:href="#2" y="2.171"/><text y="8.183" class="f">[1m[36m[~]</text><text x="11.022" y="8.183" class="f">»[0m</text><text x="16.032" y="8.183" class="f">/telegram</text><text x="26.052" y="8.183" class="f">7890:AAEx_REDACTED</text><text x="45.09" y="8.183" class="f">458291</text></svg><svg x="4200"><use xlink:href="#a"/><use xlink:href="#b" x="51.996" y="6.488"/><use xlink:href="#1"/><use xlink:href="#2" y="2.171"/><text y="8.183" class="f">[1m[36m[~]</text><text x="11.022" y="8.183" class="f">»[0m</text><text x="16.032" y="8.183" class="f">/telegram</text><text x="26.052" y="8.183" class="f">7890:AAEx_REDACTED</text><text x="45.09" y="8.183" class="f">4582912</text></svg><svg x="4305"><use xlink:href="#a"/><use xlink:href="#b" x="52.996" y="6.488"/><use xlink:href="#1"/><use xlink:href="#2" y="2.171"/><text y="8.183" class="f">[1m[36m[~]</text><text x="11.022" y="8.183" class="f">»[0m</text><text x="16.032" y="8.183" class="f">/telegram</text><text x="26.052" y="8.183" class="f">7890:AAEx_REDACTED</text><text x="45.09" y="8.183" class="f">45829120</text></svg><svg x="4410"><use xlink:href="#a"/><use xlink:href="#b" x="53.996" y="6.488"/><use xlink:href="#1"/><use xlink:href="#2" y="2.171"/><use xlink:href="#6" y="6.513"/></svg><svg x="4515"><use xlink:href="#a"/><use xlink:href="#b" x="-.004" y="8.659"/><use xlink:href="#1"/><use xlink:href="#2" y="2.171"/><use xlink:href="#6" y="6.513"/></svg><svg x="4620"><use xlink:href="#a"/><use xlink:href="#b" x="-.004" y="10.83"/><use xlink:href="#1"/><use xlink:href="#2" y="2.171"/><use xlink:href="#6" y="6.513"/><use xlink:href="#7" y="8.684"/></svg><svg x="4725"><use xlink:href="#a"/><use xlink:href="#b" x="-.004" y="15.172"/><use xlink:href="#1"/><use xlink:href="#2" y="2.171"/><use xlink:href="#6" y="6.513"/><use xlink:href="#7" y="8.684"/><use xlink:href="#8" y="10.855"/></svg><svg x="4830"><use xlink:href="#a"/><use xlink:href="#b" x="-.004" y="17.343"/><use xlink:href="#1"/><use xlink:href="#2" y="2.171"/><use xlink:href="#6" y="6.513"/><use xlink:href="#7" y="8.684"/><use xlink:href="#8" y="10.855"/><use xlink:href="#9" y="15.197"/></svg><svg x="4935"><use xlink:href="#a"/><use xlink:href="#b" x="-.004" y="19.514"/><use xlink:href="#1"/><use xlink:href="#2" y="2.171"/><use xlink:href="#6" y="6.513"/><use xlink:href="#7" y="8.684"/><use xlink:href="#8" y="10.855"/><use xlink:href="#9" y="15.197"/><use xlink:href="#10" y="17.368"/></svg><svg x="5040"><use xlink:href="#a"/><use xlink:href="#b" x="-.004" y="21.685"/><use xlink:href="#1"/><use xlink:href="#2" y="2.171"/><use xlink:href="#6" y="6.513"/><use xlink:href="#7" y="8.684"/><use xlink:href="#8" y="10.855"/><use xlink:href="#9" y="15.197"/><use xlink:href="#10" y="17.368"/><use xlink:href="#11" y="19.539"/></svg><svg x="5145"><use xlink:href="#a"/><use xlink:href="#b" x="-.004" y="26.027"/><use xlink:href="#1"/><use xlink:href="#2" y="2.171"/><use xlink:href="#6" y="6.513"/><use xlink:href="#7" y="8.684"/><use xlink:href="#8" y="10.855"/><use xlink:href="#9" y="15.197"/><use xlink:href="#10" y="17.368"/><use xlink:href="#11" y="19.539"/><use xlink:href="#12" y="21.71"/></svg><svg x="5250"><use xlink:href="#a"/><use xlink:href="#b" x="-.004" y="28.198"/><use xlink:href="#1"/><use xlink:href="#2" y="2.171"/><use xlink:href="#6" y="6.513"/><use xlink:href="#7" y="8.684"/><use xlink:href="#8" y="10.855"/><use xlink:href="#9" y="15.197"/><use xlink:href="#10" y="17.368"/><use xlink:href="#11" y="19.539"/><use xlink:href="#12" y="21.71"/><use xlink:href="#13" y="26.052"/></svg><svg x="5355"><use xlink:href="#a"/><use xlink:href="#b" x="-.004" y="32.54"/><use xlink:href="#1"/><use xlink:href="#2" y="2.171"/><use xlink:href="#6" y="6.513"/><use xlink:href="#7" y="8.684"/><use xlink:href="#8" y="10.855"/><use xlink:href="#9" y="15.197"/><use xlink:href="#10" y="17.368"/><use xlink:href="#11" y="19.539"/><use xlink:href="#12" y="21.71"/><use xlink:href="#13" y="26.052"/><use xlink:href="#14" y="28.223"/></svg><svg x="5460"><use xlink:href="#a"/><use xlink:href="#b" x="-.004" y="34.711"/><use xlink:href="#1"/><use xlink:href="#2" y="2.171"/><use xlink:href="#6" y="6.513"/><use xlink:href="#7" y="8.684"/><use xlink:href="#8" y="10.855"/><use xlink:href="#9" y="15.197"/><use xlink:href="#10" y="17.368"/><use xlink:href="#11" y="19.539"/><use xlink:href="#12" y="21.71"/><use xlink:href="#13" y="26.052"/><use xlink:href="#14" y="28.223"/><use xlink:href="#9" y="32.565"/></svg><svg x="5565"><use xlink:href="#a"/><use xlink:href="#b" x="-.004" y="36.882"/><use xlink:href="#1"/><use xlink:href="#2" y="2.171"/><use xlink:href="#6" y="6.513"/><use xlink:href="#7" y="8.684"/><use xlink:href="#8" y="10.855"/><use xlink:href="#9" y="15.197"/><use xlink:href="#10" y="17.368"/><use xlink:href="#11" y="19.539"/><use xlink:href="#12" y="21.71"/><use xlink:href="#13" y="26.052"/><use xlink:href="#14" y="28.223"/><use xlink:href="#9" y="32.565"/><use xlink:href="#15" y="34.736"/></svg><svg x="5670"><use xlink:href="#a"/><use xlink:href="#b" x="-.004" y="39.053"/><use xlink:href="#1"/><use xlink:href="#2" y="2.171"/><use xlink:href="#6" y="6.513"/><use xlink:href="#7" y="8.684"/><use xlink:href="#8" y="10.855"/><use xlink:href="#9" y="15.197"/><use xlink:href="#10" y="17.368"/><use xlink:href="#11" y="19.539"/><use xlink:href="#12" y="21.71"/><use xlink:href="#13" y="26.052"/><use xlink:href="#14" y="28.223"/><use xlink:href="#9" y="32.565"/><use xlink:href="#15" y="34.736"/><use xlink:href="#16" y="36.907"/></svg><svg x="5775"><use xlink:href="#a"/><use xlink:href="#b" x="-.004" y="43.395"/><use xlink:href="#1"/><use xlink:href="#2" y="2.171"/><use xlink:href="#6" y="6.513"/><use xlink:href="#7" y="8.684"/><use xlink:href="#8" y="10.855"/><use xlink:href="#9" y="15.197"/><use xlink:href="#10" y="17.368"/><use xlink:href="#11" y="19.539"/><use xlink:href="#12" y="21.71"/><use xlink:href="#13" y="26.052"/><use xlink:href="#14" y="28.223"/><use xlink:href="#9" y="32.565"/><use xlink:href="#15" y="34.736"/><use xlink:href="#16" y="36.907"/><use xlink:href="#12" y="39.078"/></svg><svg x="5880"><use xlink:href="#a"/><use xlink:href="#b" x="-.004" y="45.566"/><use xlink:href="#1"/><use xlink:href="#2" y="2.171"/><use xlink:href="#6" y="6.513"/><use xlink:href="#7" y="8.684"/><use xlink:href="#8" y="10.855"/><use xlink:href="#9" y="15.197"/><use xlink:href="#10" y="17.368"/><use xlink:href="#11" y="19.539"/><use xlink:href="#12" y="21.71"/><use xlink:href="#13" y="26.052"/><use xlink:href="#14" y="28.223"/><use xlink:href="#9" y="32.565"/><use xlink:href="#15" y="34.736"/><use xlink:href="#16" y="36.907"/><use xlink:href="#12" y="39.078"/><use xlink:href="#9" y="43.42"/></svg><svg x="5985"><use xlink:href="#a"/><use xlink:href="#b" x="-.004" y="47.737"/><use xlink:href="#1"/><use xlink:href="#2" y="2.171"/><use xlink:href="#6" y="6.513"/><use xlink:href="#7" y="8.684"/><use xlink:href="#8" y="10.855"/><use xlink:href="#9" y="15.197"/><use xlink:href="#10" y="17.368"/><use xlink:href="#11" y="19.539"/><use xlink:href="#12" y="21.71"/><use xlink:href="#13" y="26.052"/><use xlink:href="#14" y="28.223"/><use xlink:href="#9" y="32.565"/><use xlink:href="#15" y="34.736"/><use xlink:href="#16" y="36.907"/><use xlink:href="#12" y="39.078"/><use xlink:href="#9" y="43.42"/><use xlink:href="#17" y="45.591"/></svg><svg x="6090"><use xlink:href="#a"/><use xlink:href="#b" x="-.004" y="52.079"/><use xlink:href="#1"/><use xlink:href="#2" y="2.171"/><use xlink:href="#6" y="6.513"/><use xlink:href="#7" y="8.684"/><use xlink:href="#8" y="10.855"/><use xlink:href="#9" y="15.197"/><use xlink:href="#10" y="17.368"/><use xlink:href="#11" y="19.539"/><use xlink:href="#12" y="21.71"/><use xlink:href="#13" y="26.052"/><use xlink:href="#14" y="28.223"/><use xlink:href="#9" y="32.565"/><use xlink:href="#15" y="34.736"/><use xlink:href="#16" y="36.907"/><use xlink:href="#12" y="39.078"/><use xlink:href="#9" y="43.42"/><use xlink:href="#17" y="45.591"/><use xlink:href="#12" y="47.762"/></svg><svg x="6195"><use xlink:href="#a"/><use xlink:href="#b" x="-.004" y="54.25"/><use xlink:href="#1"/><use xlink:href="#2" y="2.171"/><use xlink:href="#6" y="6.513"/><use xlink:href="#7" y="8.684"/><use xlink:href="#8" y="10.855"/><use xlink:href="#9" y="15.197"/><use xlink:href="#10" y="17.368"/><use xlink:href="#11" y="19.539"/><use xlink:href="#12" y="21.71"/><use xlink:href="#13" y="26.052"/><use xlink:href="#14" y="28.223"/><use xlink:href="#9" y="32.565"/><use xlink:href="#15" y="34.736"/><use xlink:href="#16" y="36.907"/><use xlink:href="#12" y="39.078"/><use xlink:href="#9" y="43.42"/><use xlink:href="#17" y="45.591"/><use xlink:href="#12" y="47.762"/><use xlink:href="#18" y="52.104"/></svg><svg x="6300"><use xlink:href="#a"/><use xlink:href="#b" x="-.004" y="58.592"/><use xlink:href="#1"/><use xlink:href="#2" y="2.171"/><use xlink:href="#6" y="6.513"/><use xlink:href="#7" y="8.684"/><use xlink:href="#8" y="10.855"/><use xlink:href="#9" y="15.197"/><use xlink:href="#10" y="17.368"/><use xlink:href="#11" y="19.539"/><use xlink:href="#12" y="21.71"/><use xlink:href="#13" y="26.052"/><use xlink:href="#14" y="28.223"/><use xlink:href="#9" y="32.565"/><use xlink:href="#15" y="34.736"/><use xlink:href="#16" y="36.907"/><use xlink:href="#12" y="39.078"/><use xlink:href="#9" y="43.42"/><use xlink:href="#17" y="45.591"/><use xlink:href="#12" y="47.762"/><use xlink:href="#18" y="52.104"/><use xlink:href="#19" y="54.275"/></svg><svg x="6405"><use xlink:href="#a"/><use xlink:href="#b" x="-.004" y="60.763"/><use xlink:href="#1"/><use xlink:href="#2" y="2.171"/><use xlink:href="#6" y="6.513"/><use xlink:href="#7" y="8.684"/><use xlink:href="#8" y="10.855"/><use xlink:href="#9" y="15.197"/><use xlink:href="#10" y="17.368"/><use xlink:href="#11" y="19.539"/><use xlink:href="#12" y="21.71"/><use xlink:href="#13" y="26.052"/><use xlink:href="#14" y="28.223"/><use xlink:href="#9" y="32.565"/><use xlink:href="#15" y="34.736"/><use xlink:href="#16" y="36.907"/><use xlink:href="#12" y="39.078"/><use xlink:href="#9" y="43.42"/><use xlink:href="#17" y="45.591"/><use xlink:href="#12" y="47.762"/><use xlink:href="#18" y="52.104"/><use xlink:href="#19" y="54.275"/><use xlink:href="#9" y="58.617"/></svg><svg x="6510"><use xlink:href="#a"/><use xlink:href="#b" x="-.004" y="62.934"/><use xlink:href="#1"/><use xlink:href="#2" y="2.171"/><use xlink:href="#6" y="6.513"/><use xlink:href="#7" y="8.684"/><use xlink:href="#8" y="10.855"/><use xlink:href="#9" y="15.197"/><use xlink:href="#10" y="17.368"/><use xlink:href="#11" y="19.539"/><use xlink:href="#12" y="21.71"/><use xlink:href="#13" y="26.052"/><use xlink:href="#14" y="28.223"/><use xlink:href="#9" y="32.565"/><use xlink:href="#15" y="34.736"/><use xlink:href="#16" y="36.907"/><use xlink:href="#12" y="39.078"/><use xlink:href="#9" y="43.42"/><use xlink:href="#17" y="45.591"/><use xlink:href="#12" y="47.762"/><use xlink:href="#18" y="52.104"/><use xlink:href="#19" y="54.275"/><use xlink:href="#9" y="58.617"/><use xlink:href="#20" y="60.788"/></svg><svg x="6615"><use xlink:href="#a"/><use xlink:href="#b" x="-.004" y="65.105"/><use xlink:href="#1"/><use xlink:href="#2" y="2.171"/><use xlink:href="#6" y="6.513"/><use xlink:href="#7" y="8.684"/><use xlink:href="#8" y="10.855"/><use xlink:href="#9" y="15.197"/><use xlink:href="#10" y="17.368"/><use xlink:href="#11" y="19.539"/><use xlink:href="#12" y="21.71"/><use xlink:href="#13" y="26.052"/><use xlink:href="#14" y="28.223"/><use xlink:href="#9" y="32.565"/><use xlink:href="#15" y="34.736"/><use xlink:href="#16" y="36.907"/><use xlink:href="#12" y="39.078"/><use xlink:href="#9" y="43.42"/><use xlink:href="#17" y="45.591"/><use xlink:href="#12" y="47.762"/><use xlink:href="#18" y="52.104"/><use xlink:href="#19" y="54.275"/><use xlink:href="#9" y="58.617"/><use xlink:href="#20" y="60.788"/><use xlink:href="#21" y="62.959"/></svg><svg x="6720"><use xlink:href="#a"/><use xlink:href="#b" x="-.004" y="67.276"/><use xlink:href="#1"/><use xlink:href="#2" y="2.171"/><use xlink:href="#6" y="6.513"/><use xlink:href="#7" y="8.684"/><use xlink:href="#8" y="10.855"/><use xlink:href="#9" y="15.197"/><use xlink:href="#10" y="17.368"/><use xlink:href="#11" y="19.539"/><use xlink:href="#12" y="21.71"/><use xlink:href="#13" y="26.052"/><use xlink:href="#14" y="28.223"/><use xlink:href="#9" y="32.565"/><use xlink:href="#15" y="34.736"/><use xlink:href="#16" y="36.907"/><use xlink:href="#12" y="39.078"/><use xlink:href="#9" y="43.42"/><use xlink:href="#17" y="45.591"/><use xlink:href="#12" y="47.762"/><use xlink:href="#18" y="52.104"/><use xlink:href="#19" y="54.275"/><use xlink:href="#9" y="58.617"/><use xlink:href="#20" y="60.788"/><use xlink:href="#21" y="62.959"/><use xlink:href="#22" y="65.13"/></svg><svg x="6825"><use xlink:href="#a"/><use xlink:href="#b" x="-.004" y="69.447"/><use xlink:href="#1"/><use xlink:href="#2" y="2.171"/><use xlink:href="#6" y="6.513"/><use xlink:href="#7" y="8.684"/><use xlink:href="#8" y="10.855"/><use xlink:href="#9" y="15.197"/><use xlink:href="#10" y="17.368"/><use xlink:href="#11" y="19.539"/><use xlink:href="#12" y="21.71"/><use xlink:href="#13" y="26.052"/><use xlink:href="#14" y="28.223"/><use xlink:href="#9" y="32.565"/><use xlink:href="#15" y="34.736"/><use xlink:href="#16" y="36.907"/><use xlink:href="#12" y="39.078"/><use xlink:href="#9" y="43.42"/><use xlink:href="#17" y="45.591"/><use xlink:href="#12" y="47.762"/><use xlink:href="#18" y="52.104"/><use xlink:href="#19" y="54.275"/><use xlink:href="#9" y="58.617"/><use xlink:href="#20" y="60.788"/><use xlink:href="#21" y="62.959"/><use xlink:href="#22" y="65.13"/><use xlink:href="#23" y="67.301"/></svg><svg x="6930"><use xlink:href="#a"/><use xlink:href="#b" x="-.004" y="69.447"/><use xlink:href="#2"/><use xlink:href="#6" y="4.342"/><use xlink:href="#7" y="6.513"/><use xlink:href="#8" y="8.684"/><use xlink:href="#9" y="13.026"/><use xlink:href="#10" y="15.197"/><use xlink:href="#11" y="17.368"/><use xlink:href="#12" y="19.539"/><use xlink:href="#13" y="23.881"/><use xlink:href="#14" y="26.052"/><use xlink:href="#9" y="30.394"/><use xlink:href="#15" y="32.565"/><use xlink:href="#16" y="34.736"/><use xlink:href="#12" y="36.907"/><use xlink:href="#9" y="41.249"/><use xlink:href="#17" y="43.42"/><use xlink:href="#12" y="45.591"/><use xlink:href="#18" y="49.933"/><use xlink:href="#19" y="52.104"/><use xlink:href="#9" y="56.446"/><use xlink:href="#20" y="58.617"/><use xlink:href="#21" y="60.788"/><use xlink:href="#22" y="62.959"/><use xlink:href="#23" y="65.13"/><use xlink:href="#24" y="67.301"/></svg><svg x="7035"><use xlink:href="#a"/><use xlink:href="#b" x="-.004" y="69.447"/><use xlink:href="#6"/><use xlink:href="#7" y="2.171"/><use xlink:href="#8" y="4.342"/><use xlink:href="#9" y="8.684"/><use xlink:href="#10" y="10.855"/><use xlink:href="#11" y="13.026"/><use xlink:href="#12" y="15.197"/><use xlink:href="#13" y="19.539"/><use xlink:href="#14" y="21.71"/><use xlink:href="#9" y="26.052"/><use xlink:href="#15" y="28.223"/><use xlink:href="#16" y="30.394"/><use xlink:href="#12" y="32.565"/><use xlink:href="#9" y="36.907"/><use xlink:href="#17" y="39.078"/><use xlink:href="#12" y="41.249"/><use xlink:href="#18" y="45.591"/><use xlink:href="#19" y="47.762"/><use xlink:href="#9" y="52.104"/><use xlink:href="#20" y="54.275"/><use xlink:href="#21" y="56.446"/><use xlink:href="#22" y="58.617"/><use xlink:href="#23" y="60.788"/><use xlink:href="#24" y="62.959"/><use xlink:href="#12" y="65.13"/></svg><svg x="7140"><use xlink:href="#a"/><use xlink:href="#b" x="-.004" y="69.447"/><use xlink:href="#7"/><use xlink:href="#8" y="2.171"/><use xlink:href="#9" y="6.513"/><use xlink:href="#10" y="8.684"/><use xlink:href="#11" y="10.855"/><use xlink:href="#12" y="13.026"/><use xlink:href="#13" y="17.368"/><use xlink:href="#14" y="19.539"/><use xlink:href="#9" y="23.881"/><use xlink:href="#15" y="26.052"/><use xlink:href="#16" y="28.223"/><use xlink:href="#12" y="30.394"/><use xlink:href="#9" y="34.736"/><use xlink:href="#17" y="36.907"/><use xlink:href="#12" y="39.078"/><use xlink:href="#18" y="43.42"/><use xlink:href="#19" y="45.591"/><use xlink:href="#9" y="49.933"/><use xlink:href="#20" y="52.104"/><use xlink:href="#21" y="54.275"/><use xlink:href="#22" y="56.446"/><use xlink:href="#23" y="58.617"/><use xlink:href="#24" y="60.788"/><use xlink:href="#12" y="62.959"/><use xlink:href="#9" y="67.301"/></svg><svg x="7245"><use xlink:href="#a"/><use xlink:href="#b" x="-.004" y="69.447"/><use xlink:href="#8"/><use xlink:href="#9" y="4.342"/><use xlink:href="#10" y="6.513"/><use xlink:href="#11" y="8.684"/><use xlink:href="#12" y="10.855"/><use xlink:href="#13" y="15.197"/><use xlink:href="#14" y="17.368"/><use xlink:href="#9" y="21.71"/><use xlink:href="#15" y="23.881"/><use xlink:href="#16" y="26.052"/><use xlink:href="#12" y="28.223"/><use xlink:href="#9" y="32.565"/><use xlink:href="#17" y="34.736"/><use xlink:href="#12" y="36.907"/><use xlink:href="#18" y="41.249"/><use xlink:href="#19" y="43.42"/><use xlink:href="#9" y="47.762"/><use xlink:href="#20" y="49.933"/><use xlink:href="#21" y="52.104"/><use xlink:href="#22" y="54.275"/><use xlink:href="#23" y="56.446"/><use xlink:href="#24" y="58.617"/><use xlink:href="#12" y="60.788"/><use xlink:href="#9" y="65.13"/><use xlink:href="#25" y="67.301"/></svg><svg x="7350"><use xlink:href="#a"/><use xlink:href="#b" x="-.004" y="69.447"/><use xlink:href="#9" y="2.171"/><use xlink:href="#10" y="4.342"/><use xlink:href="#11" y="6.513"/><use xlink:href="#12" y="8.684"/><use xlink:href="#13" y="13.026"/><use xlink:href="#14" y="15.197"/><use xlink:href="#9" y="19.539"/><use xlink:href="#15" y="21.71"/><use xlink:href="#16" y="23.881"/><use xlink:href="#12" y="26.052"/><use xlink:href="#9" y="30.394"/><use xlink:href="#17" y="32.565"/><use xlink:href="#12" y="34.736"/><use xlink:href="#18" y="39.078"/><use xlink:href="#19" y="41.249"/><use xlink:href="#9" y="45.591"/><use xlink:href="#20" y="47.762"/><use xlink:href="#21" y="49.933"/><use xlink:href="#22" y="52.104"/><use xlink:href="#23" y="54.275"/><use xlink:href="#24" y="56.446"/><use xlink:href="#12" y="58.617"/><use xlink:href="#9" y="62.959"/><use xlink:href="#25" y="65.13"/><use xlink:href="#26" y="67.301"/></svg><svg x="7455"><use xlink:href="#a"/><use xlink:href="#b" x="-.004" y="69.447"/><use xlink:href="#10"/><use xlink:href="#11" y="2.171"/><use xlink:href="#12" y="4.342"/><use xlink:href="#13" y="8.684"/><use xlink:href="#14" y="10.855"/><use xlink:href="#9" y="15.197"/><use xlink:href="#15" y="17.368"/><use xlink:href="#16" y="19.539"/><use xlink:href="#12" y="21.71"/><use xlink:href="#9" y="26.052"/><use xlink:href="#17" y="28.223"/><use xlink:href="#12" y="30.394"/><use xlink:href="#18" y="34.736"/><use xlink:href="#19" y="36.907"/><use xlink:href="#9" y="41.249"/><use xlink:href="#20" y="43.42"/><use xlink:href="#21" y="45.591"/><use xlink:href="#22" y="47.762"/><use xlink:href="#23" y="49.933"/><use xlink:href="#24" y="52.104"/><use xlink:href="#12" y="54.275"/><use xlink:href="#9" y="58.617"/><use xlink:href="#25" y="60.788"/><use xlink:href="#26" y="62.959"/><use xlink:href="#12" y="65.13"/></svg><svg x="7560"><use xlink:href="#a"/><use xlink:href="#b" x="-.004" y="69.447"/><use xlink:href="#12"/><use xlink:href="#13" y="4.342"/><use xlink:href="#14" y="6.513"/><use xlink:href="#9" y="10.855"/><use xlink:href="#15" y="13.026"/><use xlink:href="#16" y="15.197"/><use xlink:href="#12" y="17.368"/><use xlink:href="#9" y="21.71"/><use xlink:href="#17" y="23.881"/><use xlink:href="#12" y="26.052"/><use xlink:href="#18" y="30.394"/><use xlink:href="#19" y="32.565"/><use xlink:href="#9" y="36.907"/><use xlink:href="#20" y="39.078"/><use xlink:href="#21" y="41.249"/><use xlink:href="#22" y="43.42"/><use xlink:href="#23" y="45.591"/><use xlink:href="#24" y="47.762"/><use xlink:href="#12" y="49.933"/><use xlink:href="#9" y="54.275"/><use xlink:href="#25" y="56.446"/><use xlink:href="#26" y="58.617"/><use xlink:href="#12" y="60.788"/><use xlink:href="#27" y="65.13"/></svg><svg x="7665"><use xlink:href="#a"/><use xlink:href="#b" x="15.996" y="69.447"/><use xlink:href="#12"/><use xlink:href="#13" y="4.342"/><use xlink:href="#14" y="6.513"/><use xlink:href="#9" y="10.855"/><use xlink:href="#15" y="13.026"/><use xlink:href="#16" y="15.197"/><use xlink:href="#12" y="17.368"/><use xlink:href="#9" y="21.71"/><use xlink:href="#17" y="23.881"/><use xlink:href="#12" y="26.052"/><use xlink:href="#18" y="30.394"/><use xlink:href="#19" y="32.565"/><use xlink:href="#9" y="36.907"/><use xlink:href="#20" y="39.078"/><use xlink:href="#21" y="41.249"/><use xlink:href="#22" y="43.42"/><use xlink:href="#23" y="45.591"/><use xlink:href="#24" y="47.762"/><use xlink:href="#12" y="49.933"/><use xlink:href="#9" y="54.275"/><use xlink:href="#25" y="56.446"/><use xlink:href="#26" y="58.617"/><use xlink:href="#12" y="60.788"/><use xlink:href="#27" y="65.13"/><use xlink:href="#3" y="69.472"/></svg><svg x="7770"><use xlink:href="#a"/><use xlink:href="#b" x="15.996" y="69.447"/><use xlink:href="#12"/><use xlink:href="#13" y="4.342"/><use xlink:href="#14" y="6.513"/><use xlink:href="#9" y="10.855"/><use xlink:href="#15" y="13.026"/><use xlink:href="#16" y="15.197"/><use xlink:href="#12" y="17.368"/><use xlink:href="#9" y="21.71"/><use xlink:href="#17" y="23.881"/><use xlink:href="#12" y="26.052"/><use xlink:href="#18" y="30.394"/><use xlink:href="#19" y="32.565"/><use xlink:href="#9" y="36.907"/><use xlink:href="#20" y="39.078"/><use xlink:href="#21" y="41.249"/><use xlink:href="#22" y="43.42"/><use xlink:href="#23" y="45.591"/><use xlink:href="#24" y="47.762"/><use xlink:href="#12" y="49.933"/><use xlink:href="#9" y="54.275"/><use xlink:href="#25" y="56.446"/><use xlink:href="#26" y="58.617"/><use xlink:href="#12" y="60.788"/><use xlink:href="#27" y="65.13"/><use xlink:href="#3" y="69.472"/></svg></svg></g></g></svg></svg>